# xmcd
#
# Track frame offsets: 
#        150
#        21599
#        35960
#        52689
#        74187
#        93004
#        106023
#        124925
#        151650
#        167378
#        185774
#        203228
#
# Disc length: 2832 seconds
#
# Revision: 0
# Processed by: cddbd v1.5.2PL0 Copyright (c) Steve Scherf et al.
# Submitted via: ExactAudioCopy v0.99pb3
#
DISCID=9f0b0e0c
DTITLE=The Skivvies - The Skivvies
DYEAR=2008
DGENRE=Celtic
TTITLE0=My Old Dark Sea
TTITLE1=What Life's Like
TTITLE2=Cunla
TTITLE3=Rien A Faire
TTITLE4=A Long Time Yet
TTITLE5=A Long Way Into Town
TTITLE6=Nothing I Understand
TTITLE7=Reggae Set
TTITLE8=Marine Drive
TTITLE9=My Own Kind Of Wild
TTITLE10=Disco Set
TTITLE11=Fine By Me
EXTD=
EXTT0=
EXTT1=
EXTT2=
EXTT3=
EXTT4=
EXTT5=
EXTT6=
EXTT7=
EXTT8=
EXTT9=
EXTT10=
EXTT11=
PLAYORDER=
